<svg width="32" height="32" viewBox="0 0 32 32" fill="none" xmlns="http://www.w3.org/2000/svg">
<path fill-rule="evenodd" clip-rule="evenodd" d="M16 0C24.8366 0 32.0003 7.16341 32.0003 16C32.0003 24.8366 24.8366 32 16 32C7.16349 31.9999 3.14011e-05 24.8365 0 16C0 7.16345 7.16347 7.32606e-05 16 0ZM12.2608 8.40729C10.8759 8.41547 9.60457 9.17517 8.94115 10.3909L6.85652 14.2103C6.22856 15.3611 6.23701 16.7542 6.87852 17.8975L9.00777 21.6921C9.6855 22.8999 10.9657 23.6446 12.3507 23.6364L19.7395 23.5927C21.1244 23.5845 22.3957 22.8248 23.0592 21.6091L25.1438 17.7897C25.7717 16.6389 25.7633 15.2458 25.1218 14.1025L22.9925 10.3079C22.3148 9.10005 21.0346 8.35542 19.6496 8.3636L12.2608 8.40729Z" fill="currentColor"/>
<path fill-rule="evenodd" clip-rule="evenodd" d="M15.8418 9.77262C15.8626 9.70268 15.927 9.65441 16.0002 9.65441C16.0733 9.65441 16.1377 9.70268 16.1585 9.77262C16.1585 9.77262 16.4484 10.7443 16.7591 11.7866C17.2542 13.447 18.5531 14.7459 20.2136 15.241C21.2558 15.5517 22.2275 15.8416 22.2275 15.8416C22.2975 15.8624 22.3457 15.9269 22.3457 16C22.3457 16.0731 22.2975 16.1376 22.2275 16.1584C22.2275 16.1584 21.2558 16.4483 20.2136 16.759C18.5531 17.2541 17.2542 18.553 16.7591 20.2134C16.4484 21.2557 16.1585 22.2274 16.1585 22.2274C16.1377 22.2973 16.0733 22.3456 16.0002 22.3456C15.927 22.3456 15.8626 22.2973 15.8418 22.2274C15.8418 22.2274 15.5519 21.2557 15.2412 20.2134C14.7461 18.553 13.4472 17.2541 11.7867 16.759C10.7445 16.4483 9.77277 16.1584 9.77277 16.1584C9.70283 16.1376 9.65456 16.0731 9.65456 16C9.65456 15.9269 9.70283 15.8624 9.77277 15.8416C9.77277 15.8416 10.7445 15.5517 11.7867 15.241C13.4472 14.7459 14.7461 13.447 15.2412 11.7866C15.5519 10.7443 15.8418 9.77262 15.8418 9.77262Z" fill="currentColor"/>
</svg>
