<svg width="49" height="25" viewBox="0 0 49 25" fill="none" xmlns="http://www.w3.org/2000/svg">
<path fill-rule="evenodd" clip-rule="evenodd" d="M34.2988 2.17676H33.083C32.7203 2.17676 32.4747 2.23025 32.3467 2.33691C32.219 2.44374 32.1553 2.68879 32.1553 3.07227V4.7041H48.0273V6.94434H45.7227V24.7363H42.8428V21.998C42.6145 22.1585 42.2634 22.2402 41.7871 22.2402H38.1387C37.1788 22.2402 36.4535 22.0163 35.9629 21.5684C35.4937 21.099 35.2588 20.3738 35.2588 19.3926V12.0322C35.2588 11.0938 35.4828 10.411 35.9307 9.98438C36.4 9.53638 37.1578 9.3125 38.2031 9.3125H41.5312V11.4883H39.1309L41.3389 15.3604C41.6161 15.8509 41.8828 16.3415 42.1387 16.832C42.416 17.3014 42.63 17.6857 42.7793 17.9844C42.9499 18.283 43.0352 18.4326 43.0352 18.4326C43.0352 18.4326 43.0134 18.2939 42.9707 18.0166C42.9494 17.7393 42.9177 17.2913 42.875 16.6729C42.8537 16.0543 42.8428 15.2754 42.8428 14.3369V6.94434H32.123V24.7363H29.2432V6.94434H26.5234V19.3926C26.5234 20.3739 26.2778 21.099 25.7871 21.5684C25.2964 22.0164 24.5069 22.2402 23.4189 22.2402H20.9229C19.8564 22.2402 19.0775 22.0163 18.5869 21.5684C18.0964 21.099 17.8516 20.3737 17.8516 19.3926V6.94434H14.8164V24.7363H11.9355V15.7129H8.7998V19.4561C8.7998 20.3734 8.56502 21.0668 8.0957 21.5361C7.64777 22.0054 6.90155 22.2402 5.85645 22.2402H2.94434C1.899 22.2402 1.14121 22.0055 0.671875 21.5361C0.224033 21.0668 0 20.3732 0 19.4561V16.4805H2.91211V19.0723C2.91211 19.4348 2.97564 19.6805 3.10352 19.8086C3.2315 19.9366 3.47726 20.001 3.83984 20.001H4.99219C5.37579 20.001 5.62076 19.9364 5.72754 19.8086C5.85554 19.6806 5.91992 19.4349 5.91992 19.0723V15.6484C5.91992 15.2648 5.84538 15.009 5.69629 14.8809C5.54702 14.7316 5.28022 14.6563 4.89648 14.6562H2.97559V12.3848H4.89648C5.28022 12.3847 5.54702 12.3094 5.69629 12.1602C5.84541 12.0108 5.91992 11.7441 5.91992 11.3604V7.84082C5.91992 7.45682 5.85554 7.21116 5.72754 7.10449C5.62079 6.97666 5.37585 6.91213 4.99219 6.91211H3.83984C3.47726 6.91213 3.2315 6.97651 3.10352 7.10449C2.97571 7.21129 2.91211 7.45711 2.91211 7.84082V10.3682H0V7.45605C7.07699e-05 6.53914 0.22414 5.84621 0.671875 5.37695C1.14121 4.90762 1.899 4.67285 2.94434 4.67285H5.85645C6.90155 4.67292 7.64777 4.90769 8.0957 5.37695C8.56491 5.84621 8.79973 6.53899 8.7998 7.45605V11.9043C8.7998 12.3948 8.69365 12.7684 8.48047 13.0244C8.26713 13.2591 7.95709 13.4087 7.55176 13.4727V13.5049H11.9355V4.7041H29.2754V2.68848C29.2754 1.77144 29.5095 1.09954 29.9785 0.672852C30.4264 0.224921 31.1628 6.95263e-05 32.1865 0H34.2988V2.17676ZM20.7314 19.04C20.7314 19.4239 20.795 19.6805 20.9229 19.8086C21.0722 19.9366 21.3287 20.001 21.6914 20.001H22.6836C23.0672 20.0009 23.3122 19.9364 23.4189 19.8086C23.5469 19.6806 23.6113 19.424 23.6113 19.04V6.94434H20.7314V19.04ZM38.1387 19.04C38.1387 19.424 38.2031 19.6806 38.3311 19.8086C38.4591 19.9365 38.7048 20.001 39.0674 20.001H41.915C42.0658 20.001 42.1972 19.9894 42.3096 19.9688L39.835 15.7441C39.3657 14.8483 38.9813 14.1121 38.6826 13.5361C38.4054 12.9604 38.224 12.6193 38.1387 12.5127V19.04Z" fill="white"/>
</svg>
